<svg viewBox="0 0 1200 675" xmlns="http://www.w3.org/2000/svg" font-family="Inter, 'Segoe UI', Arial, sans-serif">
  <rect width="1200" height="675" fill="#F7F8FA"/>

  <!-- browser window -->
  <rect x="80" y="48" width="1040" height="580" rx="2" fill="#FFFFFF" stroke="#E5E7EB"/>
  <!-- top bar -->
  <rect x="80" y="48" width="1040" height="44" fill="#FFFFFF"/>
  <line x1="80" y1="92" x2="1120" y2="92" stroke="#E5E7EB"/>
  <circle cx="106" cy="70" r="5" fill="#EF4444" opacity=".85"/>
  <circle cx="124" cy="70" r="5" fill="#F59E0B" opacity=".85"/>
  <circle cx="142" cy="70" r="5" fill="#16A34A" opacity=".85"/>
  <rect x="170" y="58" width="320" height="24" rx="12" fill="#F7F8FA" stroke="#E5E7EB"/>
  <text x="186" y="74" font-size="11" fill="#6B7280">compliance360.isoxpert.com</text>

  <!-- sidebar -->
  <rect x="80" y="92" width="212" height="536" fill="#0A1E3F"/>
  <text x="104" y="130" font-size="13" font-weight="700" fill="#FFFFFF">COMPLIANCE<tspan fill="#7FA8FF">360</tspan></text>
  <rect x="80" y="152" width="212" height="36" fill="#12294F"/>
  <rect x="80" y="152" width="3" height="36" fill="#2563EB"/>
  <g font-size="12">
    <text x="104" y="175" fill="#FFFFFF" font-weight="600">Dashboard</text>
    <text x="104" y="215" fill="#B9C4D6">Documents</text>
    <text x="104" y="255" fill="#B9C4D6">Risk Register</text>
    <text x="104" y="295" fill="#B9C4D6">Clause Map</text>
    <text x="104" y="335" fill="#B9C4D6">Internal Audits</text>
    <text x="104" y="375" fill="#B9C4D6">Reports</text>
  </g>
  <rect x="104" y="560" width="164" height="40" rx="2" fill="#12294F"/>
  <text x="118" y="578" font-size="9" font-weight="600" fill="#7FA8FF">AI ASSISTANT</text>
  <text x="118" y="592" font-size="9.5" fill="#B9C4D6">Generate document…</text>

  <!-- main heading -->
  <text x="322" y="136" font-size="19" font-weight="700" fill="#16181D">Document Overview</text>
  <text x="322" y="156" font-size="11" fill="#6B7280">ISO 45001 · ISO 14001 · ISO 9001 · Integrated Management System</text>
  <rect x="928" y="116" width="164" height="32" rx="2" fill="#2563EB"/>
  <text x="1010" y="136" font-size="11.5" font-weight="600" fill="#FFFFFF" text-anchor="middle">+ Generate with AI</text>

  <!-- stat tiles -->
  <g>
    <rect x="322" y="176" width="180" height="78" rx="2" fill="#FFFFFF" stroke="#E5E7EB"/>
    <rect x="322" y="176" width="180" height="2" fill="#0A1E3F"/>
    <text x="338" y="212" font-size="22" font-weight="700" fill="#16181D">128</text>
    <text x="338" y="234" font-size="10" font-weight="600" fill="#6B7280">DOCUMENTS</text>
  </g>
  <g>
    <rect x="518" y="176" width="180" height="78" rx="2" fill="#FFFFFF" stroke="#E5E7EB"/>
    <rect x="518" y="176" width="180" height="2" fill="#0A1E3F"/>
    <text x="534" y="212" font-size="22" font-weight="700" fill="#16181D">7</text>
    <text x="534" y="234" font-size="10" font-weight="600" fill="#6B7280">IN REVIEW</text>
  </g>
  <g>
    <rect x="714" y="176" width="180" height="78" rx="2" fill="#FFFFFF" stroke="#E5E7EB"/>
    <rect x="714" y="176" width="180" height="2" fill="#0A1E3F"/>
    <text x="730" y="212" font-size="22" font-weight="700" fill="#16181D">42</text>
    <text x="730" y="234" font-size="10" font-weight="600" fill="#6B7280">OPEN RISKS</text>
  </g>
  <g>
    <rect x="910" y="176" width="182" height="78" rx="2" fill="#FFFFFF" stroke="#E5E7EB"/>
    <rect x="910" y="176" width="182" height="2" fill="#2563EB"/>
    <text x="926" y="212" font-size="22" font-weight="700" fill="#2563EB">75%</text>
    <text x="926" y="234" font-size="10" font-weight="600" fill="#6B7280">AUDIT READINESS</text>
  </g>

  <!-- document list -->
  <rect x="322" y="278" width="470" height="326" rx="2" fill="#FFFFFF" stroke="#E5E7EB"/>
  <text x="340" y="308" font-size="13" font-weight="700" fill="#16181D">Recent documents</text>
  <line x1="322" y1="322" x2="792" y2="322" stroke="#E5E7EB"/>
  <g font-size="11.5" font-weight="600" fill="#16181D">
    <g stroke="#2563EB" stroke-width="1.6" fill="none" stroke-linecap="round" stroke-linejoin="round">
      <path d="M344 342h11l4 4v12h-15zM355 342v4h4"/>
      <path d="M344 394h11l4 4v12h-15zM355 394v4h4"/>
      <path d="M344 446h11l4 4v12h-15zM355 446v4h4"/>
      <path d="M344 498h11l4 4v12h-15zM355 498v4h4"/>
      <path d="M344 550h11l4 4v12h-15zM355 550v4h4"/>
    </g>
    <text x="374" y="352">OH&amp;S Policy</text>
    <text x="374" y="404">HIRA Procedure</text>
    <text x="374" y="456">Legal Register</text>
    <text x="374" y="508">Internal Audit SOP</text>
    <text x="374" y="560">Management Review</text>
  </g>
  <g font-size="9.5" fill="#6B7280">
    <text x="374" y="366">ISO 45001 · Clause 5.2</text>
    <text x="374" y="418">ISO 45001 · Clause 6.1.2</text>
    <text x="374" y="470">ISO 14001 · Clause 6.1.3</text>
    <text x="374" y="522">ISO 9001 · Clause 9.2</text>
    <text x="374" y="574">IMS · Clause 9.3</text>
  </g>
  <g font-size="9" font-weight="700" text-anchor="middle">
    <rect x="694" y="338" width="76" height="20" rx="2" fill="#EAF7EF"/><text x="732" y="352" fill="#16A34A">APPROVED</text>
    <rect x="694" y="390" width="76" height="20" rx="2" fill="#FEF4E6"/><text x="732" y="404" fill="#F59E0B">IN PROGRESS</text>
    <rect x="694" y="442" width="76" height="20" rx="2" fill="#EAF7EF"/><text x="732" y="456" fill="#16A34A">APPROVED</text>
    <rect x="694" y="494" width="76" height="20" rx="2" fill="#F1F3F5"/><text x="732" y="508" fill="#6B7280">PENDING</text>
    <rect x="694" y="546" width="76" height="20" rx="2" fill="#EAF7EF"/><text x="732" y="560" fill="#16A34A">APPROVED</text>
  </g>

  <!-- right column: readiness + clause coverage -->
  <rect x="816" y="278" width="276" height="152" rx="2" fill="#FFFFFF" stroke="#E5E7EB"/>
  <text x="834" y="308" font-size="13" font-weight="700" fill="#16181D">Audit readiness</text>
  <text x="834" y="356" font-size="30" font-weight="700" fill="#2563EB">75%</text>
  <rect x="834" y="376" width="240" height="10" rx="2" fill="#EDF0F4"/>
  <rect x="834" y="376" width="180" height="10" rx="2" fill="#2563EB"/>
  <text x="834" y="410" font-size="10" fill="#6B7280">12 items remaining before certification audit</text>

  <rect x="816" y="452" width="276" height="152" rx="2" fill="#FFFFFF" stroke="#E5E7EB"/>
  <text x="834" y="482" font-size="13" font-weight="700" fill="#16181D">Clause coverage</text>
  <g fill="#2563EB">
    <rect x="842" y="530" width="26" height="56" rx="1"/>
    <rect x="884" y="516" width="26" height="70" rx="1"/>
    <rect x="926" y="540" width="26" height="46" rx="1" fill="#B9CDF5"/>
    <rect x="968" y="508" width="26" height="78" rx="1"/>
    <rect x="1010" y="548" width="26" height="38" rx="1" fill="#B9CDF5"/>
  </g>
  <g font-size="8.5" fill="#6B7280" text-anchor="middle">
    <text x="855" y="598">Cl.4</text>
    <text x="897" y="598">Cl.5</text>
    <text x="939" y="598">Cl.6</text>
    <text x="981" y="598">Cl.8</text>
    <text x="1023" y="598">Cl.9</text>
  </g>
</svg>
